<svg width="128" height="48" viewBox="0 0 128 48" class="fill-black h-6 w-auto h-9" fill="black" xmlns="http://www.w3.org/2000/svg"><path d="M37.696 37.0374V3.90833e-05H44.4068V37.0374H37.696Z"></path><path d="M50.3527 37.0374V12.2946H57.1147V37.0374H50.3527Z"></path><path d="M73.4074 48C70.7778 48 68.4555 47.5219 66.4405 46.5656C64.4256 45.6435 62.8204 44.3287 61.6251 42.6211L65.877 38.3693C66.8333 39.4963 67.892 40.3501 69.0531 40.9306C70.2484 41.5454 71.6828 41.8527 73.3562 41.8527C75.4394 41.8527 77.0787 41.3234 78.274 40.2647C79.5035 39.206 80.1182 37.7375 80.1182 35.8591V29.6606L81.2452 24.2305L80.1694 18.8005V12.2946H86.829V35.7567C86.829 38.2156 86.2484 40.3501 85.0872 42.1601C83.9602 44.0043 82.3893 45.4386 80.3743 46.4632C78.3594 47.4877 76.0371 48 73.4074 48ZM73.1001 36.3714C70.8802 36.3714 68.8823 35.8421 67.1065 34.7834C65.3306 33.6905 63.9304 32.2049 62.9058 30.3266C61.9154 28.4483 61.4202 26.3479 61.4202 24.0256C61.4202 21.7033 61.9154 19.6201 62.9058 17.7759C63.9304 15.9317 65.3306 14.4803 67.1065 13.4216C68.8823 12.3287 70.8802 11.7823 73.1001 11.7823C74.9442 11.7823 76.5664 12.1409 77.9666 12.8581C79.401 13.5753 80.528 14.5657 81.3477 15.8293C82.1673 17.0587 82.6112 18.5102 82.6796 20.1836V27.9701C82.6112 29.6094 82.1502 31.0779 81.2964 32.3757C80.4768 33.6393 79.3498 34.6297 77.9154 35.3469C76.5152 36.0299 74.9101 36.3714 73.1001 36.3714ZM74.432 30.2754C75.6614 30.2754 76.7201 30.0192 77.6081 29.507C78.5302 28.9605 79.2473 28.2263 79.7596 27.3042C80.2719 26.3479 80.528 25.2722 80.528 24.0769C80.528 22.8474 80.2719 21.7716 79.7596 20.8495C79.2473 19.9274 78.5302 19.2103 77.6081 18.698C76.7201 18.1516 75.6614 17.8784 74.432 17.8784C73.2025 17.8784 72.1267 18.1516 71.2046 18.698C70.2826 19.2103 69.5654 19.9445 69.0531 20.9008C68.5408 21.8229 68.2847 22.8816 68.2847 24.0769C68.2847 25.238 68.5408 26.2967 69.0531 27.253C69.5654 28.175 70.2826 28.9093 71.2046 29.4557C72.1267 30.0022 73.2025 30.2754 74.432 30.2754Z"></path><path d="M108.583 37.0374V22.8474C108.583 21.3789 108.122 20.1836 107.2 19.2615C106.278 18.3394 105.083 17.8784 103.614 17.8784C102.658 17.8784 101.804 18.0833 101.053 18.4931C100.301 18.9029 99.7038 19.4835 99.2599 20.2348C98.85 20.9861 98.6451 21.857 98.6451 22.8474L96.0325 21.5155C96.0325 19.5689 96.4424 17.8784 97.262 16.444C98.1158 14.9755 99.2769 13.8314 100.745 13.0118C102.248 12.1921 103.939 11.7823 105.817 11.7823C107.627 11.7823 109.249 12.2434 110.684 13.1655C112.118 14.0534 113.245 15.2316 114.065 16.7001C114.884 18.1345 115.294 19.6884 115.294 21.3618V37.0374H108.583ZM91.9343 37.0374V12.2946H98.6451V37.0374H91.9343Z"></path><path d="M25.7575 37.0373V0H32.4682V37.0373H25.7575Z"></path><path d="M50.3881 6.66304V0H57.0989V6.66304H50.3881Z"></path><path d="M25.8291 37.0373L12.4488 26.9973L16.4765 21.6296L29.8568 31.6696L25.8291 37.0373Z"></path><path d="M0 37.0374H8.19443L31.2531 4.1316L25.7574 0.280462L0 37.0374Z"></path><path d="M120.521 37.0376V30.3745H127.232V37.0376H120.521Z" fill="#5051f9"></path></svg>